<svg xmlns="http://www.w3.org/2000/svg" id="Layer_2" data-name="Layer 2" viewBox="0 0 142.45 242.37">
    <defs>
        <style> .cls-1 { fill: #134779; } </style>
    </defs>
    <g id="Layer_1-2" data-name="Layer 1">
        <g>
            <path class="cls-1"
                d="M142.35,91.95s-.06,.02-.08,.03c0,.07-.02,.14-.02,.21-.78,5.51-5.76,21.69-36.73,36.05-2.57,1.19-5.32,2.37-8.26,3.53-1.79,.71-3.49,1.51-5.12,2.4-34.96,19.18-33.99,79.03-30.92,95.3,.05,.29,.41,.28,.46,0,2.26-14.82,4.34-70.49,36.89-82,1.31-.46,2.59-.94,3.82-1.43,4.6-1.81,8.7-3.79,12.35-5.92,22.82-13.25,27.98-31.82,27.7-47.9v-.22s-.05-.05-.09-.05"></path>
            <path class="cls-1"
                d="M91.19,133.09c1.78-.99,3.63-1.87,5.56-2.63,2.72-1.07,5.33-2.18,7.82-3.32-5.91-6.77-12.13-13.28-17.36-20.61-6.47-9.04-10.84-19.31-12.63-30.3-1.99-12.24-.9-25.51,3.9-37.01,.06-.11,.93-1.95,.63-2.13-.3-.18-1.45,1.48-1.53,1.61-2,2.75-3.9,5.89-5.21,9.03-8.67,20.77-8.26,44.71,2.93,64.52,4.32,7.64,10.04,14.28,15.9,20.83"></path>
            <path class="cls-1"
                d="M115.5,141.27c-3.71,2.16-7.78,4.13-12.21,5.9,3.81,4.9,7.21,10.07,9.74,15.85,5.21,11.92,5.84,26.37,.69,38.45,0-.01-.94,1.95-.63,2.13,.31,.18,1.53-1.6,1.53-1.61,2-2.76,3.87-5.89,5.21-9.03,4.65-10.91,6.18-22.67,3.41-34.29-1.5-6.28-4.29-12.03-7.74-17.4"></path>
            <path class="cls-1"
                d="M77.66,228.58c-1.06,.35-2.11,.7-3.16,1.07-2.92,1.01-5.77,2.18-8.73,3.08-2.93,.89-5.92,1.62-8.93,2.18-6.03,1.13-12.18,1.63-18.32,1.52-.79-.01-1.6,0-2.39-.07-4.91-.21-9.86-.8-14.49-2.47-4.62-1.67-8.94-4.49-11.77-8.5-5.58-7.9-3.78-18.01,2.05-25.13,6.04-7.37,15.12-11.37,23.51-15.37,2.6-1.24,5.2-2.49,7.72-3.88,.73-.4,1.44-.83,2.13-1.29,1.15-.65,2.29-1.29,3.4-1.93,2.94-1.69,5.9-3.56,8.09-6.21,2.75-3.31,3.8-7.63,4.8-11.71,.42-1.71,.83-3.48,.98-5.23,.02-.25,.26-1.96-.29-1.32-4.74,5.5-12.67,4.69-18.8,7.64,1.15-1.23,2.38-2.39,3.65-3.49,2.9-2.52,6.03-4.77,9.27-6.85,6.48-4.17,14.2-7.19,19.67-12.73,1.87-1.89,3.22-4.44,4.5-6.74,.69-1.23,1.37-2.48,1.94-3.77,.09-.19,.78-2.17,.63-2.13-9.74,2.46-20.04-.42-29.69,2.49-3.6,1.08-6.83,3.01-9.36,5.8-4.05,4.47-7.62,10.61-9.47,16.37-.88,2.75,1.96-1.43,2.2-1.79,1.07-1.62,1.97-3.34,3.44-4.65,1.44-1.29,3.24-2.08,5.04-2.71,1.96-.68,4.01-1.08,6.07-1.31,.9-.1,1.81-.17,2.71-.22,2.5-.14,5.01-.11,7.52-.09-.37,.24-.74,.48-1.1,.73-7.79,5.36-13.83,11.93-18.85,19.93-.91,1.44-1.75,2.95-2.53,4.47-1.69,2.03-2.68,4.51-3.49,7.11-.43,1.37-.82,2.75-1.18,4.15-.11,.05-.21,.1-.32,.14-.4,.16-.77,.38-1.15,.58-13.28,7.12-27.89,14.22-31.99,30.2-2.17,8.48-.75,17.85,4.71,24.82,4.39,5.61,11.53,8.8,18.38,10.12,7.1,1.36,14.77,1.19,21.89,.05,5.76-.92,11.42-2.43,16.88-4.48,5.73-2.15,11.28-4.87,16.4-8.23,.26-.17,.52-.34,.78-.52-.43-.51-1.85,.19-2.34,.35"></path>
            <path class="cls-1"
                d="M32.4,116.74c4.36-1.38,9.05-4.79,13.95-10.19,1.49,2.05,2.42,3.08,2.74,2.97,.55-.17,.6-1.15,.08-2.79-.14-.44-.49-1.17-.91-2.11,1.75-3.2,2.26-6.12,1.47-8.63-.59-1.85-1.47-3.5-2.68-4.67-1.61-1.65-3.23-2.22-4.75-1.74-3.49,1.11-5.34,5.89-4.09,9.82,.52,1.64,1.8,3.39,3.94,5.24-3.26,5.24-8.21,9.33-14.77,12.13l2.31,.47c.94-.06,1.85-.23,2.72-.5m8.41-20.08c.66-.57,1.14-.96,1.46-1.06,1.42-.45,2.46,.18,3.01,1.93,.38,1.2-.04,2.53-1.18,4.22-1.85-2.42-2.87-4.13-3.29-5.08"></path>
            <path class="cls-1"
                d="M101.11,72.3c-2.11,1.35-3.55,2.41-4.32,3.17-.42,.36-.84,.88-1.23,1.54-.4,.66-.8,1.39-1.2,2.19-.7,1.47-1.04,2.53-1.05,3.2,3.72-2.37,7.55-4.71,11.49-7.02,3.95-2.31,7.91-4.34,11.9-6.11,.97-1.19,1.7-2.23,2.19-3.1,.5-.88,.82-1.47,.97-1.77,.21-.37,.38-.84,.52-1.39s.21-.97,.22-1.25c-1.26,.48-3.04,1.32-5.36,2.52-2.32,1.2-4.73,2.5-7.22,3.9-2.49,1.4-4.79,2.77-6.9,4.12"></path>
            <path class="cls-1"
                d="M109.65,104.03c-4.51,0-8.16,3.65-8.16,8.16s3.65,8.16,8.16,8.16,8.16-3.65,8.16-8.16-3.65-8.16-8.16-8.16"></path>
            <path class="cls-1"
                d="M128.9,101.09c4.51,0,8.16-3.65,8.16-8.16s-3.65-8.16-8.16-8.16-8.16,3.65-8.16,8.16,3.65,8.16,8.16,8.16"></path>
            <path class="cls-1"
                d="M96.74,18.81c-12.27,8.74-20.63,23.77-20.9,38.97,11.82-4.28,23.03-9.7,29.37-21.12,6.73-12.13,4.68-23.76,2.7-36.66-2.02,1.9-4.12,3.61-6.29,5.21-4.93,3.64-10.18,6.71-15.5,10.01-5.8,3.61-11.05,7.2-13.86,13.66-1.31,3.03-2.06,6.34-2.3,9.7v.02c-.26,3.62,.07,7.29,.9,10.73,2.94-13.27,14.26-24.19,25.88-30.51"></path>
        </g>
    </g>
</svg>